<svg width="101" height="96" viewBox="0 0 101 96" fill="none" xmlns="http://www.w3.org/2000/svg">
<path d="M2.688 80.032V83.76H6.752V84.96H2.688V88.8H7.232V90H1.232V78.832H7.232V80.032H2.688ZM14.0111 90L11.9311 86.736L9.93113 90H8.41113L11.2431 85.648L8.41113 81.232H10.0591L12.1391 84.48L14.1231 81.232H15.6431L12.8271 85.568L15.6591 90H14.0111ZM18.5474 82.848C18.8354 82.3467 19.262 81.9307 19.8274 81.6C20.4034 81.2587 21.07 81.088 21.8274 81.088C22.606 81.088 23.31 81.2747 23.9394 81.648C24.5794 82.0213 25.0807 82.5493 25.4434 83.232C25.806 83.904 25.9874 84.688 25.9874 85.584C25.9874 86.4693 25.806 87.2587 25.4434 87.952C25.0807 88.6453 24.5794 89.184 23.9394 89.568C23.31 89.952 22.606 90.144 21.8274 90.144C21.0807 90.144 20.4194 89.9787 19.8434 89.648C19.278 89.3067 18.846 88.8853 18.5474 88.384V94.16H17.0914V81.232H18.5474V82.848ZM24.4994 85.584C24.4994 84.9227 24.366 84.3467 24.0994 83.856C23.8327 83.3653 23.47 82.992 23.0114 82.736C22.5634 82.48 22.0674 82.352 21.5234 82.352C20.99 82.352 20.494 82.4853 20.0354 82.752C19.5874 83.008 19.2247 83.3867 18.9474 83.888C18.6807 84.3787 18.5474 84.9493 18.5474 85.6C18.5474 86.2613 18.6807 86.8427 18.9474 87.344C19.2247 87.8347 19.5874 88.2133 20.0354 88.48C20.494 88.736 20.99 88.864 21.5234 88.864C22.0674 88.864 22.5634 88.736 23.0114 88.48C23.47 88.2133 23.8327 87.8347 24.0994 87.344C24.366 86.8427 24.4994 86.256 24.4994 85.584ZM35.9039 85.28C35.9039 85.5573 35.8879 85.8507 35.8559 86.16H28.8479C28.9012 87.024 29.1945 87.7013 29.7279 88.192C30.2719 88.672 30.9279 88.912 31.6959 88.912C32.3252 88.912 32.8479 88.768 33.2639 88.48C33.6905 88.1813 33.9892 87.7867 34.1599 87.296H35.7279C35.4932 88.1387 35.0239 88.8267 34.3199 89.36C33.6159 89.8827 32.7412 90.144 31.6959 90.144C30.8639 90.144 30.1172 89.9573 29.4559 89.584C28.8052 89.2107 28.2932 88.6827 27.9199 88C27.5465 87.3067 27.3599 86.5067 27.3599 85.6C27.3599 84.6933 27.5412 83.8987 27.9039 83.216C28.2665 82.5333 28.7732 82.0107 29.4239 81.648C30.0852 81.2747 30.8425 81.088 31.6959 81.088C32.5279 81.088 33.2639 81.2693 33.9039 81.632C34.5439 81.9947 35.0345 82.496 35.3759 83.136C35.7279 83.7653 35.9039 84.48 35.9039 85.28ZM34.3999 84.976C34.3999 84.4213 34.2772 83.9467 34.0319 83.552C33.7865 83.1467 33.4505 82.8427 33.0239 82.64C32.6079 82.4267 32.1439 82.32 31.6319 82.32C30.8959 82.32 30.2665 82.5547 29.7439 83.024C29.2319 83.4933 28.9385 84.144 28.8639 84.976H34.3999ZM39.2818 82.656C39.5378 82.1547 39.9004 81.7653 40.3698 81.488C40.8498 81.2107 41.4311 81.072 42.1138 81.072V82.576H41.7298C40.0978 82.576 39.2818 83.4613 39.2818 85.232V90H37.8258V81.232H39.2818V82.656ZM44.5465 79.808C44.2692 79.808 44.0345 79.712 43.8425 79.52C43.6505 79.328 43.5545 79.0933 43.5545 78.816C43.5545 78.5387 43.6505 78.304 43.8425 78.112C44.0345 77.92 44.2692 77.824 44.5465 77.824C44.8132 77.824 45.0372 77.92 45.2185 78.112C45.4105 78.304 45.5065 78.5387 45.5065 78.816C45.5065 79.0933 45.4105 79.328 45.2185 79.52C45.0372 79.712 44.8132 79.808 44.5465 79.808ZM45.2505 81.232V90H43.7945V81.232H45.2505ZM55.732 85.28C55.732 85.5573 55.716 85.8507 55.684 86.16H48.676C48.7293 87.024 49.0227 87.7013 49.556 88.192C50.1 88.672 50.756 88.912 51.524 88.912C52.1533 88.912 52.676 88.768 53.092 88.48C53.5187 88.1813 53.8173 87.7867 53.988 87.296H55.556C55.3213 88.1387 54.852 88.8267 54.148 89.36C53.444 89.8827 52.5693 90.144 51.524 90.144C50.692 90.144 49.9453 89.9573 49.284 89.584C48.6333 89.2107 48.1213 88.6827 47.748 88C47.3747 87.3067 47.188 86.5067 47.188 85.6C47.188 84.6933 47.3693 83.8987 47.732 83.216C48.0947 82.5333 48.6013 82.0107 49.252 81.648C49.9133 81.2747 50.6707 81.088 51.524 81.088C52.356 81.088 53.092 81.2693 53.732 81.632C54.372 81.9947 54.8627 82.496 55.204 83.136C55.556 83.7653 55.732 84.48 55.732 85.28ZM54.228 84.976C54.228 84.4213 54.1053 83.9467 53.86 83.552C53.6147 83.1467 53.2787 82.8427 52.852 82.64C52.436 82.4267 51.972 82.32 51.46 82.32C50.724 82.32 50.0947 82.5547 49.572 83.024C49.06 83.4933 48.7667 84.144 48.692 84.976H54.228ZM61.9259 81.072C62.9925 81.072 63.8565 81.3973 64.5179 82.048C65.1792 82.688 65.5099 83.616 65.5099 84.832V90H64.0699V85.04C64.0699 84.1653 63.8512 83.4987 63.4139 83.04C62.9765 82.5707 62.3792 82.336 61.6219 82.336C60.8539 82.336 60.2405 82.576 59.7819 83.056C59.3339 83.536 59.1099 84.2347 59.1099 85.152V90H57.6539V81.232H59.1099V82.48C59.3979 82.032 59.7872 81.6853 60.2779 81.44C60.7792 81.1947 61.3285 81.072 61.9259 81.072ZM67.3443 85.6C67.3443 84.6933 67.5256 83.904 67.8883 83.232C68.2509 82.5493 68.7523 82.0213 69.3923 81.648C70.0429 81.2747 70.7843 81.088 71.6163 81.088C72.6936 81.088 73.5789 81.3493 74.2723 81.872C74.9763 82.3947 75.4403 83.12 75.6643 84.048H74.0963C73.9469 83.5147 73.6536 83.0933 73.2163 82.784C72.7896 82.4747 72.2563 82.32 71.6163 82.32C70.7843 82.32 70.1123 82.608 69.6003 83.184C69.0883 83.7493 68.8323 84.5547 68.8323 85.6C68.8323 86.656 69.0883 87.472 69.6003 88.048C70.1123 88.624 70.7843 88.912 71.6163 88.912C72.2563 88.912 72.7896 88.7627 73.2163 88.464C73.6429 88.1653 73.9363 87.7387 74.0963 87.184H75.6643C75.4296 88.08 74.9603 88.8 74.2563 89.344C73.5523 89.8773 72.6723 90.144 71.6163 90.144C70.7843 90.144 70.0429 89.9573 69.3923 89.584C68.7523 89.2107 68.2509 88.6827 67.8883 88C67.5256 87.3173 67.3443 86.5173 67.3443 85.6ZM85.607 85.28C85.607 85.5573 85.591 85.8507 85.559 86.16H78.551C78.6043 87.024 78.8977 87.7013 79.431 88.192C79.975 88.672 80.631 88.912 81.399 88.912C82.0283 88.912 82.551 88.768 82.967 88.48C83.3937 88.1813 83.6923 87.7867 83.863 87.296H85.431C85.1963 88.1387 84.727 88.8267 84.023 89.36C83.319 89.8827 82.4443 90.144 81.399 90.144C80.567 90.144 79.8203 89.9573 79.159 89.584C78.5083 89.2107 77.9963 88.6827 77.623 88C77.2497 87.3067 77.063 86.5067 77.063 85.6C77.063 84.6933 77.2443 83.8987 77.607 83.216C77.9697 82.5333 78.4763 82.0107 79.127 81.648C79.7883 81.2747 80.5457 81.088 81.399 81.088C82.231 81.088 82.967 81.2693 83.607 81.632C84.247 81.9947 84.7377 82.496 85.079 83.136C85.431 83.7653 85.607 84.48 85.607 85.28ZM84.103 84.976C84.103 84.4213 83.9803 83.9467 83.735 83.552C83.4897 83.1467 83.1537 82.8427 82.727 82.64C82.311 82.4267 81.847 82.32 81.335 82.32C80.599 82.32 79.9697 82.5547 79.447 83.024C78.935 83.4933 78.6417 84.144 78.567 84.976H84.103Z" fill="black"/>
<rect y="62.0001" width="71.9999" height="6.00003" fill="#444CFC"/>
<rect x="10.4023" y="62" width="61.5953" height="6.00003" fill="#FFA155"/>
<rect x="10.0503" y="62" width="44.6449" height="5.99069" fill="#FFD3AF"/>
<path d="M1.296 18.4V13.756H9.972V40H4.788V18.4H1.296ZM14.951 26.536C14.951 22.384 15.695 19.132 17.183 16.78C18.695 14.428 21.191 13.252 24.671 13.252C28.151 13.252 30.635 14.428 32.123 16.78C33.635 19.132 34.391 22.384 34.391 26.536C34.391 30.712 33.635 33.988 32.123 36.364C30.635 38.74 28.151 39.928 24.671 39.928C21.191 39.928 18.695 38.74 17.183 36.364C15.695 33.988 14.951 30.712 14.951 26.536ZM29.423 26.536C29.423 24.76 29.303 23.272 29.063 22.072C28.847 20.848 28.391 19.852 27.695 19.084C27.023 18.316 26.015 17.932 24.671 17.932C23.327 17.932 22.307 18.316 21.611 19.084C20.939 19.852 20.483 20.848 20.243 22.072C20.027 23.272 19.919 24.76 19.919 26.536C19.919 28.36 20.027 29.896 20.243 31.144C20.459 32.368 20.915 33.364 21.611 34.132C22.307 34.876 23.327 35.248 24.671 35.248C26.015 35.248 27.035 34.876 27.731 34.132C28.427 33.364 28.883 32.368 29.099 31.144C29.315 29.896 29.423 28.36 29.423 26.536ZM66.4585 20.056L54.1105 49.432H48.7465L53.0665 39.496L45.0745 20.056H50.7265L55.8745 33.988L61.0945 20.056H66.4585ZM74.2154 23.152C74.8634 22.096 75.7034 21.268 76.7354 20.668C77.7914 20.068 78.9914 19.768 80.3354 19.768V25.06H79.0034C77.4194 25.06 76.2194 25.432 75.4034 26.176C74.6114 26.92 74.2154 28.216 74.2154 30.064V40H69.1754V20.056H74.2154V23.152ZM91.3621 40.324C89.7301 40.324 88.2661 40.036 86.9701 39.46C85.6741 38.86 84.6421 38.056 83.8741 37.048C83.1301 36.04 82.7221 34.924 82.6501 33.7H87.7261C87.8221 34.468 88.1941 35.104 88.8421 35.608C89.5141 36.112 90.3421 36.364 91.3261 36.364C92.2861 36.364 93.0301 36.172 93.5581 35.788C94.1101 35.404 94.3861 34.912 94.3861 34.312C94.3861 33.664 94.0501 33.184 93.3781 32.872C92.7301 32.536 91.6861 32.176 90.2461 31.792C88.7581 31.432 87.5341 31.06 86.5741 30.676C85.6381 30.292 84.8221 29.704 84.1261 28.912C83.4541 28.12 83.1181 27.052 83.1181 25.708C83.1181 24.604 83.4301 23.596 84.0541 22.684C84.7021 21.772 85.6141 21.052 86.7901 20.524C87.9901 19.996 89.3941 19.732 91.0021 19.732C93.3781 19.732 95.2741 20.332 96.6901 21.532C98.1061 22.708 98.8861 24.304 99.0301 26.32H94.2061C94.1341 25.528 93.7981 24.904 93.1981 24.448C92.6221 23.968 91.8421 23.728 90.8581 23.728C89.9461 23.728 89.2381 23.896 88.7341 24.232C88.2541 24.568 88.0141 25.036 88.0141 25.636C88.0141 26.308 88.3501 26.824 89.0221 27.184C89.6941 27.52 90.7381 27.868 92.1541 28.228C93.5941 28.588 94.7821 28.96 95.7181 29.344C96.6541 29.728 97.4581 30.328 98.1301 31.144C98.8261 31.936 99.1861 32.992 99.2101 34.312C99.2101 35.464 98.8861 36.496 98.2381 37.408C97.6141 38.32 96.7021 39.04 95.5021 39.568C94.3261 40.072 92.9461 40.324 91.3621 40.324Z" fill="#232536"/>
</svg>
