<svg width="134" height="96" viewBox="0 0 134 96" fill="none" xmlns="http://www.w3.org/2000/svg">
<path d="M8.688 82.112C8.688 83.04 8.368 83.8133 7.728 84.432C7.09867 85.04 6.13333 85.344 4.832 85.344H2.688V90H1.232V78.848H4.832C6.09067 78.848 7.04533 79.152 7.696 79.76C8.35733 80.368 8.688 81.152 8.688 82.112ZM4.832 84.144C5.64267 84.144 6.24 83.968 6.624 83.616C7.008 83.264 7.2 82.7627 7.2 82.112C7.2 80.736 6.41067 80.048 4.832 80.048H2.688V84.144H4.832ZM11.9536 82.656C12.2096 82.1547 12.5723 81.7653 13.0416 81.488C13.5216 81.2107 14.103 81.072 14.7856 81.072V82.576H14.4016C12.7696 82.576 11.9536 83.4613 11.9536 85.232V90H10.4976V81.232H11.9536V82.656ZM20.2904 90.144C19.469 90.144 18.7224 89.9573 18.0504 89.584C17.389 89.2107 16.8664 88.6827 16.4824 88C16.109 87.3067 15.9224 86.5067 15.9224 85.6C15.9224 84.704 16.1144 83.9147 16.4984 83.232C16.893 82.5387 17.4264 82.0107 18.0984 81.648C18.7704 81.2747 19.5224 81.088 20.3544 81.088C21.1864 81.088 21.9384 81.2747 22.6104 81.648C23.2824 82.0107 23.8104 82.5333 24.1944 83.216C24.589 83.8987 24.7864 84.6933 24.7864 85.6C24.7864 86.5067 24.5837 87.3067 24.1784 88C23.7837 88.6827 23.245 89.2107 22.5624 89.584C21.8797 89.9573 21.1224 90.144 20.2904 90.144ZM20.2904 88.864C20.813 88.864 21.3037 88.7413 21.7624 88.496C22.221 88.2507 22.589 87.8827 22.8664 87.392C23.1544 86.9013 23.2984 86.304 23.2984 85.6C23.2984 84.896 23.1597 84.2987 22.8824 83.808C22.605 83.3173 22.2424 82.9547 21.7944 82.72C21.3464 82.4747 20.861 82.352 20.3384 82.352C19.805 82.352 19.3144 82.4747 18.8664 82.72C18.429 82.9547 18.077 83.3173 17.8104 83.808C17.5437 84.2987 17.4104 84.896 17.4104 85.6C17.4104 86.3147 17.5384 86.9173 17.7944 87.408C18.061 87.8987 18.413 88.2667 18.8504 88.512C19.2877 88.7467 19.7677 88.864 20.2904 88.864ZM27.4848 79.808C27.2074 79.808 26.9728 79.712 26.7808 79.52C26.5994 79.328 26.5088 79.0933 26.5088 78.816C26.5088 78.5387 26.5994 78.304 26.7808 78.112C26.9728 77.92 27.2074 77.824 27.4848 77.824C27.7621 77.824 27.9914 77.92 28.1728 78.112C28.3648 78.304 28.4608 78.5387 28.4608 78.816C28.4608 79.0933 28.3648 79.328 28.1728 79.52C27.9914 79.712 27.7621 79.808 27.4848 79.808ZM28.2048 91.904C28.2048 92.6827 28.0074 93.2533 27.6128 93.616C27.2181 93.9787 26.6421 94.16 25.8848 94.16H25.0367V92.928H25.6448C26.0501 92.928 26.3328 92.848 26.4928 92.688C26.6634 92.528 26.7488 92.256 26.7488 91.872V81.232H28.2048V91.904ZM38.6695 85.28C38.6695 85.5573 38.6535 85.8507 38.6215 86.16H31.6135C31.6668 87.024 31.9602 87.7013 32.4935 88.192C33.0375 88.672 33.6935 88.912 34.4615 88.912C35.0908 88.912 35.6135 88.768 36.0295 88.48C36.4562 88.1813 36.7548 87.7867 36.9255 87.296H38.4935C38.2588 88.1387 37.7895 88.8267 37.0855 89.36C36.3815 89.8827 35.5068 90.144 34.4615 90.144C33.6295 90.144 32.8828 89.9573 32.2215 89.584C31.5708 89.2107 31.0588 88.6827 30.6855 88C30.3122 87.3067 30.1255 86.5067 30.1255 85.6C30.1255 84.6933 30.3068 83.8987 30.6695 83.216C31.0322 82.5333 31.5388 82.0107 32.1895 81.648C32.8508 81.2747 33.6082 81.088 34.4615 81.088C35.2935 81.088 36.0295 81.2693 36.6695 81.632C37.3095 81.9947 37.8002 82.496 38.1415 83.136C38.4935 83.7653 38.6695 84.48 38.6695 85.28ZM37.1655 84.976C37.1655 84.4213 37.0428 83.9467 36.7975 83.552C36.5522 83.1467 36.2162 82.8427 35.7895 82.64C35.3735 82.4267 34.9095 82.32 34.3975 82.32C33.6615 82.32 33.0322 82.5547 32.5095 83.024C31.9975 83.4933 31.7042 84.144 31.6295 84.976H37.1655ZM40.0474 85.6C40.0474 84.6933 40.2287 83.904 40.5914 83.232C40.954 82.5493 41.4554 82.0213 42.0954 81.648C42.746 81.2747 43.4874 81.088 44.3194 81.088C45.3967 81.088 46.282 81.3493 46.9754 81.872C47.6794 82.3947 48.1434 83.12 48.3674 84.048H46.7994C46.65 83.5147 46.3567 83.0933 45.9194 82.784C45.4927 82.4747 44.9594 82.32 44.3194 82.32C43.4874 82.32 42.8154 82.608 42.3034 83.184C41.7914 83.7493 41.5354 84.5547 41.5354 85.6C41.5354 86.656 41.7914 87.472 42.3034 88.048C42.8154 88.624 43.4874 88.912 44.3194 88.912C44.9594 88.912 45.4927 88.7627 45.9194 88.464C46.346 88.1653 46.6394 87.7387 46.7994 87.184H48.3674C48.1327 88.08 47.6634 88.8 46.9594 89.344C46.2554 89.8773 45.3754 90.144 44.3194 90.144C43.4874 90.144 42.746 89.9573 42.0954 89.584C41.4554 89.2107 40.954 88.6827 40.5914 88C40.2287 87.3173 40.0474 86.5173 40.0474 85.6ZM52.0861 82.432V87.6C52.0861 88.0267 52.1768 88.3307 52.3581 88.512C52.5395 88.6827 52.8541 88.768 53.3021 88.768H54.3741V90H53.0621C52.2515 90 51.6435 89.8133 51.2381 89.44C50.8328 89.0667 50.6301 88.4533 50.6301 87.6V82.432H49.4941V81.232H50.6301V79.024H52.0861V81.232H54.3741V82.432H52.0861ZM63.8759 78.848C65.0919 78.848 66.1425 79.0773 67.0279 79.536C67.9239 79.984 68.6065 80.6293 69.0759 81.472C69.5559 82.3147 69.7959 83.3067 69.7959 84.448C69.7959 85.5893 69.5559 86.5813 69.0759 87.424C68.6065 88.256 67.9239 88.896 67.0279 89.344C66.1425 89.7813 65.0919 90 63.8759 90H60.4039V78.848H63.8759ZM63.8759 88.8C65.3159 88.8 66.4145 88.4213 67.1719 87.664C67.9292 86.896 68.3079 85.824 68.3079 84.448C68.3079 83.0613 67.9239 81.9787 67.1559 81.2C66.3985 80.4213 65.3052 80.032 63.8759 80.032H61.8599V88.8H63.8759ZM79.7164 85.28C79.7164 85.5573 79.7004 85.8507 79.6684 86.16H72.6604C72.7137 87.024 73.007 87.7013 73.5404 88.192C74.0844 88.672 74.7404 88.912 75.5084 88.912C76.1377 88.912 76.6604 88.768 77.0764 88.48C77.503 88.1813 77.8017 87.7867 77.9724 87.296H79.5404C79.3057 88.1387 78.8364 88.8267 78.1324 89.36C77.4284 89.8827 76.5537 90.144 75.5084 90.144C74.6764 90.144 73.9297 89.9573 73.2684 89.584C72.6177 89.2107 72.1057 88.6827 71.7324 88C71.359 87.3067 71.1724 86.5067 71.1724 85.6C71.1724 84.6933 71.3537 83.8987 71.7164 83.216C72.079 82.5333 72.5857 82.0107 73.2364 81.648C73.8977 81.2747 74.655 81.088 75.5084 81.088C76.3404 81.088 77.0764 81.2693 77.7164 81.632C78.3564 81.9947 78.847 82.496 79.1884 83.136C79.5404 83.7653 79.7164 84.48 79.7164 85.28ZM78.2124 84.976C78.2124 84.4213 78.0897 83.9467 77.8444 83.552C77.599 83.1467 77.263 82.8427 76.8364 82.64C76.4204 82.4267 75.9564 82.32 75.4444 82.32C74.7084 82.32 74.079 82.5547 73.5564 83.024C73.0444 83.4933 72.751 84.144 72.6764 84.976H78.2124ZM83.0943 78.16V90H81.6383V78.16H83.0943ZM86.3278 79.808C86.0504 79.808 85.8158 79.712 85.6238 79.52C85.4318 79.328 85.3358 79.0933 85.3358 78.816C85.3358 78.5387 85.4318 78.304 85.6238 78.112C85.8158 77.92 86.0504 77.824 86.3278 77.824C86.5944 77.824 86.8184 77.92 86.9998 78.112C87.1918 78.304 87.2878 78.5387 87.2878 78.816C87.2878 79.0933 87.1918 79.328 86.9998 79.52C86.8184 79.712 86.5944 79.808 86.3278 79.808ZM87.0318 81.232V90H85.5758V81.232H87.0318ZM92.7773 88.656L95.4973 81.232H97.0493L93.6093 90H91.9133L88.4733 81.232H90.0413L92.7773 88.656ZM106.482 85.28C106.482 85.5573 106.466 85.8507 106.434 86.16H99.426C99.4793 87.024 99.7727 87.7013 100.306 88.192C100.85 88.672 101.506 88.912 102.274 88.912C102.903 88.912 103.426 88.768 103.842 88.48C104.269 88.1813 104.567 87.7867 104.738 87.296H106.306C106.071 88.1387 105.602 88.8267 104.898 89.36C104.194 89.8827 103.319 90.144 102.274 90.144C101.442 90.144 100.695 89.9573 100.034 89.584C99.3833 89.2107 98.8713 88.6827 98.498 88C98.1247 87.3067 97.938 86.5067 97.938 85.6C97.938 84.6933 98.1193 83.8987 98.482 83.216C98.8447 82.5333 99.3513 82.0107 100.002 81.648C100.663 81.2747 101.421 81.088 102.274 81.088C103.106 81.088 103.842 81.2693 104.482 81.632C105.122 81.9947 105.613 82.496 105.954 83.136C106.306 83.7653 106.482 84.48 106.482 85.28ZM104.978 84.976C104.978 84.4213 104.855 83.9467 104.61 83.552C104.365 83.1467 104.029 82.8427 103.602 82.64C103.186 82.4267 102.722 82.32 102.21 82.32C101.474 82.32 100.845 82.5547 100.322 83.024C99.81 83.4933 99.5167 84.144 99.442 84.976H104.978ZM109.86 82.656C110.116 82.1547 110.479 81.7653 110.948 81.488C111.428 81.2107 112.009 81.072 112.692 81.072V82.576H112.308C110.676 82.576 109.86 83.4613 109.86 85.232V90H108.404V81.232H109.86V82.656ZM122.373 85.28C122.373 85.5573 122.357 85.8507 122.325 86.16H115.317C115.37 87.024 115.663 87.7013 116.197 88.192C116.741 88.672 117.397 88.912 118.165 88.912C118.794 88.912 119.317 88.768 119.733 88.48C120.159 88.1813 120.458 87.7867 120.629 87.296H122.197C121.962 88.1387 121.493 88.8267 120.789 89.36C120.085 89.8827 119.21 90.144 118.165 90.144C117.333 90.144 116.586 89.9573 115.925 89.584C115.274 89.2107 114.762 88.6827 114.389 88C114.015 87.3067 113.829 86.5067 113.829 85.6C113.829 84.6933 114.01 83.8987 114.373 83.216C114.735 82.5333 115.242 82.0107 115.893 81.648C116.554 81.2747 117.311 81.088 118.165 81.088C118.997 81.088 119.733 81.2693 120.373 81.632C121.013 81.9947 121.503 82.496 121.845 83.136C122.197 83.7653 122.373 84.48 122.373 85.28ZM120.869 84.976C120.869 84.4213 120.746 83.9467 120.501 83.552C120.255 83.1467 119.919 82.8427 119.493 82.64C119.077 82.4267 118.613 82.32 118.101 82.32C117.365 82.32 116.735 82.5547 116.213 83.024C115.701 83.4933 115.407 84.144 115.333 84.976H120.869ZM123.751 85.584C123.751 84.688 123.932 83.904 124.295 83.232C124.657 82.5493 125.153 82.0213 125.783 81.648C126.423 81.2747 127.137 81.088 127.927 81.088C128.609 81.088 129.244 81.248 129.831 81.568C130.417 81.8773 130.865 82.288 131.175 82.8V78.16H132.647V90H131.175V88.352C130.887 88.8747 130.46 89.3067 129.895 89.648C129.329 89.9787 128.668 90.144 127.911 90.144C127.132 90.144 126.423 89.952 125.783 89.568C125.153 89.184 124.657 88.6453 124.295 87.952C123.932 87.2587 123.751 86.4693 123.751 85.584ZM131.175 85.6C131.175 84.9387 131.041 84.3627 130.775 83.872C130.508 83.3813 130.145 83.008 129.687 82.752C129.239 82.4853 128.743 82.352 128.199 82.352C127.655 82.352 127.159 82.48 126.711 82.736C126.263 82.992 125.905 83.3653 125.639 83.856C125.372 84.3467 125.239 84.9227 125.239 85.584C125.239 86.256 125.372 86.8427 125.639 87.344C125.905 87.8347 126.263 88.2133 126.711 88.48C127.159 88.736 127.655 88.864 128.199 88.864C128.743 88.864 129.239 88.736 129.687 88.48C130.145 88.2133 130.508 87.8347 130.775 87.344C131.041 86.8427 131.175 86.2613 131.175 85.6Z" fill="black"/>
<rect y="62.0001" width="71.9999" height="6.00003" fill="#444CFC"/>
<rect x="10.4023" y="62" width="61.5953" height="6.00003" fill="#FFA155"/>
<rect x="10.0498" y="62" width="44.6449" height="5.99069" fill="#FFD3AF"/>
<path d="M1.296 18.4V13.756H9.972V40H4.788V18.4H1.296ZM32.591 18.112H20.927V24.268C21.431 23.644 22.151 23.14 23.087 22.756C24.023 22.348 25.019 22.144 26.075 22.144C27.995 22.144 29.567 22.564 30.791 23.404C32.015 24.244 32.903 25.324 33.455 26.644C34.007 27.94 34.283 29.332 34.283 30.82C34.283 33.58 33.491 35.8 31.907 37.48C30.347 39.16 28.115 40 25.211 40C22.475 40 20.291 39.316 18.659 37.948C17.027 36.58 16.103 34.792 15.887 32.584H20.783C20.999 33.544 21.479 34.312 22.223 34.888C22.991 35.464 23.963 35.752 25.139 35.752C26.555 35.752 27.623 35.308 28.343 34.42C29.063 33.532 29.423 32.356 29.423 30.892C29.423 29.404 29.051 28.276 28.307 27.508C27.587 26.716 26.519 26.32 25.103 26.32C24.095 26.32 23.255 26.572 22.583 27.076C21.911 27.58 21.431 28.252 21.143 29.092H16.319V13.684H32.591V18.112ZM51.7269 20.308C51.4869 19.3 51.0669 18.544 50.4669 18.04C49.8909 17.536 49.0509 17.284 47.9469 17.284C46.2909 17.284 45.0669 17.956 44.2749 19.3C43.5069 20.62 43.1109 22.78 43.0869 25.78C43.6629 24.82 44.5029 24.076 45.6069 23.548C46.7109 22.996 47.9109 22.72 49.2069 22.72C50.7669 22.72 52.1469 23.056 53.3469 23.728C54.5469 24.4 55.4829 25.384 56.1549 26.68C56.8269 27.952 57.1629 29.488 57.1629 31.288C57.1629 32.992 56.8149 34.516 56.1189 35.86C55.4469 37.18 54.4509 38.212 53.1309 38.956C51.8109 39.7 50.2389 40.072 48.4149 40.072C45.9189 40.072 43.9509 39.52 42.5109 38.416C41.0949 37.312 40.0989 35.776 39.5229 33.808C38.9709 31.816 38.6949 29.368 38.6949 26.464C38.6949 22.072 39.4509 18.76 40.9629 16.528C42.4749 14.272 44.8629 13.144 48.1269 13.144C50.6469 13.144 52.6029 13.828 53.9949 15.196C55.3869 16.564 56.1909 18.268 56.4069 20.308H51.7269ZM48.0549 26.86C46.7829 26.86 45.7149 27.232 44.8509 27.976C43.9869 28.72 43.5549 29.8 43.5549 31.216C43.5549 32.632 43.9509 33.748 44.7429 34.564C45.5589 35.38 46.6989 35.788 48.1629 35.788C49.4589 35.788 50.4789 35.392 51.2229 34.6C51.9909 33.808 52.3749 32.74 52.3749 31.396C52.3749 30.004 52.0029 28.9 51.2589 28.084C50.5389 27.268 49.4709 26.86 48.0549 26.86ZM61.1463 26.536C61.1463 22.384 61.8903 19.132 63.3783 16.78C64.8903 14.428 67.3863 13.252 70.8663 13.252C74.3463 13.252 76.8303 14.428 78.3183 16.78C79.8303 19.132 80.5863 22.384 80.5863 26.536C80.5863 30.712 79.8303 33.988 78.3183 36.364C76.8303 38.74 74.3463 39.928 70.8663 39.928C67.3863 39.928 64.8903 38.74 63.3783 36.364C61.8903 33.988 61.1463 30.712 61.1463 26.536ZM75.6183 26.536C75.6183 24.76 75.4983 23.272 75.2583 22.072C75.0423 20.848 74.5863 19.852 73.8903 19.084C73.2183 18.316 72.2103 17.932 70.8663 17.932C69.5223 17.932 68.5023 18.316 67.8063 19.084C67.1343 19.852 66.6783 20.848 66.4383 22.072C66.2223 23.272 66.1143 24.76 66.1143 26.536C66.1143 28.36 66.2223 29.896 66.4383 31.144C66.6543 32.368 67.1103 33.364 67.8063 34.132C68.5023 34.876 69.5223 35.248 70.8663 35.248C72.2103 35.248 73.2303 34.876 73.9263 34.132C74.6223 33.364 75.0783 32.368 75.2943 31.144C75.5103 29.896 75.6183 28.36 75.6183 26.536ZM103.824 29.38H97.0197V36.364H92.2677V29.38H85.4637V24.988H92.2677V18.004H97.0197V24.988H103.824V29.38Z" fill="#232536"/>
</svg>
