<svg width="104" height="96" viewBox="0 0 104 96" fill="none" xmlns="http://www.w3.org/2000/svg">
<path d="M9.824 78.848V90H8.368V84.944H2.688V90H1.232V78.848H2.688V83.744H8.368V78.848H9.824ZM11.7661 85.584C11.7661 84.688 11.9475 83.904 12.3101 83.232C12.6728 82.5493 13.1688 82.0213 13.7981 81.648C14.4381 81.2747 15.1475 81.088 15.9261 81.088C16.6941 81.088 17.3608 81.2533 17.9261 81.584C18.4915 81.9147 18.9128 82.3307 19.1901 82.832V81.232H20.6621V90H19.1901V88.368C18.9021 88.88 18.4701 89.3067 17.8941 89.648C17.3288 89.9787 16.6675 90.144 15.9101 90.144C15.1315 90.144 14.4275 89.952 13.7981 89.568C13.1688 89.184 12.6728 88.6453 12.3101 87.952C11.9475 87.2587 11.7661 86.4693 11.7661 85.584ZM19.1901 85.6C19.1901 84.9387 19.0568 84.3627 18.7901 83.872C18.5235 83.3813 18.1608 83.008 17.7021 82.752C17.2541 82.4853 16.7581 82.352 16.2141 82.352C15.6701 82.352 15.1741 82.48 14.7261 82.736C14.2781 82.992 13.9208 83.3653 13.6541 83.856C13.3875 84.3467 13.2541 84.9227 13.2541 85.584C13.2541 86.256 13.3875 86.8427 13.6541 87.344C13.9208 87.8347 14.2781 88.2133 14.7261 88.48C15.1741 88.736 15.6701 88.864 16.2141 88.864C16.7581 88.864 17.2541 88.736 17.7021 88.48C18.1608 88.2133 18.5235 87.8347 18.7901 87.344C19.0568 86.8427 19.1901 86.2613 19.1901 85.6ZM24.5786 82.848C24.8666 82.3467 25.2933 81.9307 25.8586 81.6C26.4346 81.2587 27.1013 81.088 27.8586 81.088C28.6373 81.088 29.3413 81.2747 29.9706 81.648C30.6106 82.0213 31.112 82.5493 31.4746 83.232C31.8373 83.904 32.0186 84.688 32.0186 85.584C32.0186 86.4693 31.8373 87.2587 31.4746 87.952C31.112 88.6453 30.6106 89.184 29.9706 89.568C29.3413 89.952 28.6373 90.144 27.8586 90.144C27.112 90.144 26.4506 89.9787 25.8746 89.648C25.3093 89.3067 24.8773 88.8853 24.5786 88.384V94.16H23.1226V81.232H24.5786V82.848ZM30.5306 85.584C30.5306 84.9227 30.3973 84.3467 30.1306 83.856C29.864 83.3653 29.5013 82.992 29.0426 82.736C28.5946 82.48 28.0986 82.352 27.5546 82.352C27.0213 82.352 26.5253 82.4853 26.0666 82.752C25.6186 83.008 25.256 83.3867 24.9786 83.888C24.712 84.3787 24.5786 84.9493 24.5786 85.6C24.5786 86.2613 24.712 86.8427 24.9786 87.344C25.256 87.8347 25.6186 88.2133 26.0666 88.48C26.5253 88.736 27.0213 88.864 27.5546 88.864C28.0986 88.864 28.5946 88.736 29.0426 88.48C29.5013 88.2133 29.864 87.8347 30.1306 87.344C30.3973 86.8427 30.5306 86.256 30.5306 85.584ZM35.3911 82.848C35.6791 82.3467 36.1058 81.9307 36.6711 81.6C37.2471 81.2587 37.9138 81.088 38.6711 81.088C39.4498 81.088 40.1538 81.2747 40.7831 81.648C41.4231 82.0213 41.9245 82.5493 42.2871 83.232C42.6498 83.904 42.8311 84.688 42.8311 85.584C42.8311 86.4693 42.6498 87.2587 42.2871 87.952C41.9245 88.6453 41.4231 89.184 40.7831 89.568C40.1538 89.952 39.4498 90.144 38.6711 90.144C37.9245 90.144 37.2631 89.9787 36.6871 89.648C36.1218 89.3067 35.6898 88.8853 35.3911 88.384V94.16H33.9351V81.232H35.3911V82.848ZM41.3431 85.584C41.3431 84.9227 41.2098 84.3467 40.9431 83.856C40.6765 83.3653 40.3138 82.992 39.8551 82.736C39.4071 82.48 38.9111 82.352 38.3671 82.352C37.8338 82.352 37.3378 82.4853 36.8791 82.752C36.4311 83.008 36.0685 83.3867 35.7911 83.888C35.5245 84.3787 35.3911 84.9493 35.3911 85.6C35.3911 86.2613 35.5245 86.8427 35.7911 87.344C36.0685 87.8347 36.4311 88.2133 36.8791 88.48C37.3378 88.736 37.8338 88.864 38.3671 88.864C38.9111 88.864 39.4071 88.736 39.8551 88.48C40.3138 88.2133 40.6765 87.8347 40.9431 87.344C41.2098 86.8427 41.3431 86.256 41.3431 85.584ZM52.2996 81.232L47.0196 94.128H45.5156L47.2436 89.904L43.7076 81.232H45.3236L48.0756 88.336L50.7956 81.232H52.2996ZM57.4849 84.416C57.4849 83.328 57.7302 82.352 58.2209 81.488C58.7115 80.6133 59.3782 79.9307 60.2209 79.44C61.0742 78.9493 62.0182 78.704 63.0529 78.704C64.2689 78.704 65.3302 78.9973 66.2369 79.584C67.1435 80.1707 67.8049 81.0027 68.2209 82.08H66.4769C66.1675 81.408 65.7195 80.8907 65.1329 80.528C64.5569 80.1653 63.8635 79.984 63.0529 79.984C62.2742 79.984 61.5755 80.1653 60.9569 80.528C60.3382 80.8907 59.8529 81.408 59.5009 82.08C59.1489 82.7413 58.9729 83.52 58.9729 84.416C58.9729 85.3013 59.1489 86.08 59.5009 86.752C59.8529 87.4133 60.3382 87.9253 60.9569 88.288C61.5755 88.6507 62.2742 88.832 63.0529 88.832C63.8635 88.832 64.5569 88.656 65.1329 88.304C65.7195 87.9413 66.1675 87.424 66.4769 86.752H68.2209C67.8049 87.8187 67.1435 88.6453 66.2369 89.232C65.3302 89.808 64.2689 90.096 63.0529 90.096C62.0182 90.096 61.0742 89.856 60.2209 89.376C59.3782 88.8853 58.7115 88.208 58.2209 87.344C57.7302 86.48 57.4849 85.504 57.4849 84.416ZM71.8443 78.16V90H70.3883V78.16H71.8443ZM75.0778 79.808C74.8004 79.808 74.5658 79.712 74.3738 79.52C74.1818 79.328 74.0858 79.0933 74.0858 78.816C74.0858 78.5387 74.1818 78.304 74.3738 78.112C74.5658 77.92 74.8004 77.824 75.0778 77.824C75.3444 77.824 75.5684 77.92 75.7498 78.112C75.9418 78.304 76.0378 78.5387 76.0378 78.816C76.0378 79.0933 75.9418 79.328 75.7498 79.52C75.5684 79.712 75.3444 79.808 75.0778 79.808ZM75.7818 81.232V90H74.3258V81.232H75.7818ZM86.2633 85.28C86.2633 85.5573 86.2473 85.8507 86.2153 86.16H79.2073C79.2606 87.024 79.5539 87.7013 80.0873 88.192C80.6313 88.672 81.2873 88.912 82.0553 88.912C82.6846 88.912 83.2073 88.768 83.6233 88.48C84.0499 88.1813 84.3486 87.7867 84.5193 87.296H86.0873C85.8526 88.1387 85.3833 88.8267 84.6793 89.36C83.9753 89.8827 83.1006 90.144 82.0553 90.144C81.2233 90.144 80.4766 89.9573 79.8153 89.584C79.1646 89.2107 78.6526 88.6827 78.2793 88C77.9059 87.3067 77.7193 86.5067 77.7193 85.6C77.7193 84.6933 77.9006 83.8987 78.2633 83.216C78.6259 82.5333 79.1326 82.0107 79.7833 81.648C80.4446 81.2747 81.2019 81.088 82.0553 81.088C82.8873 81.088 83.6233 81.2693 84.2633 81.632C84.9033 81.9947 85.3939 82.496 85.7353 83.136C86.0873 83.7653 86.2633 84.48 86.2633 85.28ZM84.7593 84.976C84.7593 84.4213 84.6366 83.9467 84.3913 83.552C84.1459 83.1467 83.8099 82.8427 83.3833 82.64C82.9673 82.4267 82.5033 82.32 81.9913 82.32C81.2553 82.32 80.6259 82.5547 80.1033 83.024C79.5913 83.4933 79.2979 84.144 79.2233 84.976H84.7593ZM92.4571 81.072C93.5238 81.072 94.3878 81.3973 95.0491 82.048C95.7105 82.688 96.0411 83.616 96.0411 84.832V90H94.6011V85.04C94.6011 84.1653 94.3825 83.4987 93.9451 83.04C93.5078 82.5707 92.9105 82.336 92.1531 82.336C91.3851 82.336 90.7718 82.576 90.3131 83.056C89.8651 83.536 89.6411 84.2347 89.6411 85.152V90H88.1851V81.232H89.6411V82.48C89.9291 82.032 90.3185 81.6853 90.8091 81.44C91.3105 81.1947 91.8598 81.072 92.4571 81.072ZM100.196 82.432V87.6C100.196 88.0267 100.286 88.3307 100.468 88.512C100.649 88.6827 100.964 88.768 101.411 88.768H102.484V90H101.172C100.361 90 99.7528 89.8133 99.3475 89.44C98.9422 89.0667 98.7395 88.4533 98.7395 87.6V82.432H97.6035V81.232H98.7395V79.024H100.196V81.232H102.484V82.432H100.196Z" fill="black"/>
<rect y="62.0001" width="71.9999" height="6.00003" fill="#444CFC"/>
<rect x="10.4023" y="62" width="61.5953" height="6.00003" fill="#FFA155"/>
<rect x="10.0503" y="62" width="44.6449" height="5.99069" fill="#FFD3AF"/>
<path d="M7.74 32.62C7.932 33.676 8.364 34.492 9.036 35.068C9.732 35.62 10.656 35.896 11.808 35.896C13.296 35.896 14.376 35.284 15.048 34.06C15.72 32.812 16.056 30.724 16.056 27.796C15.504 28.564 14.724 29.164 13.716 29.596C12.732 30.028 11.664 30.244 10.512 30.244C8.976 30.244 7.584 29.932 6.336 29.308C5.112 28.66 4.14 27.712 3.42 26.464C2.7 25.192 2.34 23.656 2.34 21.856C2.34 19.192 3.132 17.08 4.716 15.52C6.3 13.936 8.46 13.144 11.196 13.144C14.604 13.144 17.004 14.236 18.396 16.42C19.812 18.604 20.52 21.892 20.52 26.284C20.52 29.404 20.244 31.96 19.692 33.952C19.164 35.944 18.24 37.456 16.92 38.488C15.624 39.52 13.848 40.036 11.592 40.036C9.816 40.036 8.304 39.7 7.056 39.028C5.808 38.332 4.848 37.432 4.176 36.328C3.528 35.2 3.156 33.964 3.06 32.62H7.74ZM11.556 26.14C12.804 26.14 13.788 25.756 14.508 24.988C15.228 24.22 15.588 23.188 15.588 21.892C15.588 20.476 15.204 19.384 14.436 18.616C13.692 17.824 12.672 17.428 11.376 17.428C10.08 17.428 9.048 17.836 8.28 18.652C7.536 19.444 7.164 20.5 7.164 21.82C7.164 23.092 7.524 24.136 8.244 24.952C8.988 25.744 10.092 26.14 11.556 26.14ZM42.0832 18.112H30.4192V24.268C30.9232 23.644 31.6432 23.14 32.5792 22.756C33.5152 22.348 34.5112 22.144 35.5672 22.144C37.4872 22.144 39.0592 22.564 40.2832 23.404C41.5072 24.244 42.3952 25.324 42.9472 26.644C43.4992 27.94 43.7752 29.332 43.7752 30.82C43.7752 33.58 42.9832 35.8 41.3992 37.48C39.8392 39.16 37.6072 40 34.7032 40C31.9672 40 29.7832 39.316 28.1512 37.948C26.5192 36.58 25.5952 34.792 25.3792 32.584H30.2752C30.4912 33.544 30.9712 34.312 31.7152 34.888C32.4832 35.464 33.4552 35.752 34.6312 35.752C36.0472 35.752 37.1152 35.308 37.8352 34.42C38.5552 33.532 38.9152 32.356 38.9152 30.892C38.9152 29.404 38.5432 28.276 37.7992 27.508C37.0792 26.716 36.0112 26.32 34.5952 26.32C33.5872 26.32 32.7472 26.572 32.0752 27.076C31.4032 27.58 30.9232 28.252 30.6352 29.092H25.8112V13.684H42.0832V18.112ZM47.6111 26.536C47.6111 22.384 48.3551 19.132 49.8431 16.78C51.3551 14.428 53.8511 13.252 57.3311 13.252C60.8111 13.252 63.2951 14.428 64.7831 16.78C66.2951 19.132 67.0511 22.384 67.0511 26.536C67.0511 30.712 66.2951 33.988 64.7831 36.364C63.2951 38.74 60.8111 39.928 57.3311 39.928C53.8511 39.928 51.3551 38.74 49.8431 36.364C48.3551 33.988 47.6111 30.712 47.6111 26.536ZM62.0831 26.536C62.0831 24.76 61.9631 23.272 61.7231 22.072C61.5071 20.848 61.0511 19.852 60.3551 19.084C59.6831 18.316 58.6751 17.932 57.3311 17.932C55.9871 17.932 54.9671 18.316 54.2711 19.084C53.5991 19.852 53.1431 20.848 52.9031 22.072C52.6871 23.272 52.5791 24.76 52.5791 26.536C52.5791 28.36 52.6871 29.896 52.9031 31.144C53.1191 32.368 53.5751 33.364 54.2711 34.132C54.9671 34.876 55.9871 35.248 57.3311 35.248C58.6751 35.248 59.6951 34.876 60.3911 34.132C61.0871 33.364 61.5431 32.368 61.7591 31.144C61.9751 29.896 62.0831 28.36 62.0831 26.536ZM90.2886 29.38H83.4846V36.364H78.7326V29.38H71.9286V24.988H78.7326V18.004H83.4846V24.988H90.2886V29.38Z" fill="#232536"/>
</svg>
