<svg width="97" height="96" viewBox="0 0 97 96" fill="none" xmlns="http://www.w3.org/2000/svg">
<path d="M8.688 82.112C8.688 83.04 8.368 83.8133 7.728 84.432C7.09867 85.04 6.13333 85.344 4.832 85.344H2.688V90H1.232V78.848H4.832C6.09067 78.848 7.04533 79.152 7.696 79.76C8.35733 80.368 8.688 81.152 8.688 82.112ZM4.832 84.144C5.64267 84.144 6.24 83.968 6.624 83.616C7.008 83.264 7.2 82.7627 7.2 82.112C7.2 80.736 6.41067 80.048 4.832 80.048H2.688V84.144H4.832ZM11.9536 82.656C12.2096 82.1547 12.5723 81.7653 13.0416 81.488C13.5216 81.2107 14.103 81.072 14.7856 81.072V82.576H14.4016C12.7696 82.576 11.9536 83.4613 11.9536 85.232V90H10.4976V81.232H11.9536V82.656ZM20.2904 90.144C19.469 90.144 18.7224 89.9573 18.0504 89.584C17.389 89.2107 16.8664 88.6827 16.4824 88C16.109 87.3067 15.9224 86.5067 15.9224 85.6C15.9224 84.704 16.1144 83.9147 16.4984 83.232C16.893 82.5387 17.4264 82.0107 18.0984 81.648C18.7704 81.2747 19.5224 81.088 20.3544 81.088C21.1864 81.088 21.9384 81.2747 22.6104 81.648C23.2824 82.0107 23.8104 82.5333 24.1944 83.216C24.589 83.8987 24.7864 84.6933 24.7864 85.6C24.7864 86.5067 24.5837 87.3067 24.1784 88C23.7837 88.6827 23.245 89.2107 22.5624 89.584C21.8797 89.9573 21.1224 90.144 20.2904 90.144ZM20.2904 88.864C20.813 88.864 21.3037 88.7413 21.7624 88.496C22.221 88.2507 22.589 87.8827 22.8664 87.392C23.1544 86.9013 23.2984 86.304 23.2984 85.6C23.2984 84.896 23.1597 84.2987 22.8824 83.808C22.605 83.3173 22.2424 82.9547 21.7944 82.72C21.3464 82.4747 20.861 82.352 20.3384 82.352C19.805 82.352 19.3144 82.4747 18.8664 82.72C18.429 82.9547 18.077 83.3173 17.8104 83.808C17.5437 84.2987 17.4104 84.896 17.4104 85.6C17.4104 86.3147 17.5384 86.9173 17.7944 87.408C18.061 87.8987 18.413 88.2667 18.8504 88.512C19.2877 88.7467 19.7677 88.864 20.2904 88.864ZM30.2688 82.432H28.4288V90H26.9728V82.432H25.8368V81.232H26.9728V80.608C26.9728 79.6267 27.2234 78.912 27.7248 78.464C28.2368 78.0053 29.0528 77.776 30.1727 77.776V78.992C29.5328 78.992 29.0794 79.12 28.8128 79.376C28.5568 79.6213 28.4288 80.032 28.4288 80.608V81.232H30.2688V82.432ZM39.9664 85.28C39.9664 85.5573 39.9504 85.8507 39.9184 86.16H32.9104C32.9637 87.024 33.257 87.7013 33.7904 88.192C34.3344 88.672 34.9904 88.912 35.7584 88.912C36.3877 88.912 36.9104 88.768 37.3264 88.48C37.753 88.1813 38.0517 87.7867 38.2224 87.296H39.7904C39.5557 88.1387 39.0864 88.8267 38.3824 89.36C37.6784 89.8827 36.8037 90.144 35.7584 90.144C34.9264 90.144 34.1797 89.9573 33.5184 89.584C32.8677 89.2107 32.3557 88.6827 31.9824 88C31.609 87.3067 31.4224 86.5067 31.4224 85.6C31.4224 84.6933 31.6037 83.8987 31.9664 83.216C32.329 82.5333 32.8357 82.0107 33.4864 81.648C34.1477 81.2747 34.905 81.088 35.7584 81.088C36.5904 81.088 37.3264 81.2693 37.9664 81.632C38.6064 81.9947 39.097 82.496 39.4384 83.136C39.7904 83.7653 39.9664 84.48 39.9664 85.28ZM38.4624 84.976C38.4624 84.4213 38.3397 83.9467 38.0944 83.552C37.849 83.1467 37.513 82.8427 37.0864 82.64C36.6704 82.4267 36.2064 82.32 35.6944 82.32C34.9584 82.32 34.329 82.5547 33.8064 83.024C33.2944 83.4933 33.001 84.144 32.9264 84.976H38.4624ZM44.9923 90.144C44.3203 90.144 43.7176 90.032 43.1843 89.808C42.6509 89.5733 42.2296 89.2533 41.9203 88.848C41.6109 88.432 41.4403 87.9573 41.4083 87.424H42.9123C42.9549 87.8613 43.1576 88.2187 43.5203 88.496C43.8936 88.7733 44.3789 88.912 44.9763 88.912C45.5309 88.912 45.9683 88.7893 46.2883 88.544C46.6083 88.2987 46.7683 87.9893 46.7683 87.616C46.7683 87.232 46.5976 86.9493 46.2563 86.768C45.9149 86.576 45.3869 86.3893 44.6723 86.208C44.0216 86.0373 43.4883 85.8667 43.0723 85.696C42.6669 85.5147 42.3149 85.2533 42.0163 84.912C41.7283 84.56 41.5843 84.1013 41.5843 83.536C41.5843 83.088 41.7176 82.6773 41.9843 82.304C42.2509 81.9307 42.6296 81.6373 43.1203 81.424C43.6109 81.2 44.1709 81.088 44.8003 81.088C45.7709 81.088 46.5549 81.3333 47.1523 81.824C47.7496 82.3147 48.0696 82.9867 48.1123 83.84H46.6563C46.6243 83.3813 46.4376 83.0133 46.0963 82.736C45.7656 82.4587 45.3176 82.32 44.7523 82.32C44.2296 82.32 43.8136 82.432 43.5043 82.656C43.1949 82.88 43.0403 83.1733 43.0403 83.536C43.0403 83.824 43.1309 84.064 43.3123 84.256C43.5043 84.4373 43.7389 84.5867 44.0163 84.704C44.3043 84.8107 44.6989 84.9333 45.2003 85.072C45.8296 85.2427 46.3416 85.4133 46.7363 85.584C47.1309 85.744 47.4669 85.9893 47.7443 86.32C48.0323 86.6507 48.1816 87.0827 48.1923 87.616C48.1923 88.096 48.0589 88.528 47.7923 88.912C47.5256 89.296 47.1469 89.6 46.6563 89.824C46.1763 90.0373 45.6216 90.144 44.9923 90.144ZM53.3516 90.144C52.6796 90.144 52.077 90.032 51.5436 89.808C51.0103 89.5733 50.589 89.2533 50.2796 88.848C49.9703 88.432 49.7996 87.9573 49.7676 87.424H51.2716C51.3143 87.8613 51.517 88.2187 51.8796 88.496C52.253 88.7733 52.7383 88.912 53.3356 88.912C53.8903 88.912 54.3276 88.7893 54.6476 88.544C54.9676 88.2987 55.1276 87.9893 55.1276 87.616C55.1276 87.232 54.957 86.9493 54.6156 86.768C54.2743 86.576 53.7463 86.3893 53.0316 86.208C52.381 86.0373 51.8476 85.8667 51.4316 85.696C51.0263 85.5147 50.6743 85.2533 50.3756 84.912C50.0876 84.56 49.9436 84.1013 49.9436 83.536C49.9436 83.088 50.077 82.6773 50.3436 82.304C50.6103 81.9307 50.989 81.6373 51.4796 81.424C51.9703 81.2 52.5303 81.088 53.1596 81.088C54.1303 81.088 54.9143 81.3333 55.5116 81.824C56.109 82.3147 56.429 82.9867 56.4716 83.84H55.0156C54.9836 83.3813 54.797 83.0133 54.4556 82.736C54.125 82.4587 53.677 82.32 53.1116 82.32C52.589 82.32 52.173 82.432 51.8636 82.656C51.5543 82.88 51.3996 83.1733 51.3996 83.536C51.3996 83.824 51.4903 84.064 51.6716 84.256C51.8636 84.4373 52.0983 84.5867 52.3756 84.704C52.6636 84.8107 53.0583 84.9333 53.5596 85.072C54.189 85.2427 54.701 85.4133 55.0956 85.584C55.4903 85.744 55.8263 85.9893 56.1036 86.32C56.3916 86.6507 56.541 87.0827 56.5516 87.616C56.5516 88.096 56.4183 88.528 56.1516 88.912C55.885 89.296 55.5063 89.6 55.0156 89.824C54.5356 90.0373 53.981 90.144 53.3516 90.144ZM59.359 79.808C59.0817 79.808 58.847 79.712 58.655 79.52C58.463 79.328 58.367 79.0933 58.367 78.816C58.367 78.5387 58.463 78.304 58.655 78.112C58.847 77.92 59.0817 77.824 59.359 77.824C59.6257 77.824 59.8497 77.92 60.031 78.112C60.223 78.304 60.319 78.5387 60.319 78.816C60.319 79.0933 60.223 79.328 60.031 79.52C59.8497 79.712 59.6257 79.808 59.359 79.808ZM60.063 81.232V90H58.607V81.232H60.063ZM66.3685 90.144C65.5472 90.144 64.8005 89.9573 64.1285 89.584C63.4672 89.2107 62.9445 88.6827 62.5605 88C62.1872 87.3067 62.0005 86.5067 62.0005 85.6C62.0005 84.704 62.1925 83.9147 62.5765 83.232C62.9712 82.5387 63.5045 82.0107 64.1765 81.648C64.8485 81.2747 65.6005 81.088 66.4325 81.088C67.2645 81.088 68.0165 81.2747 68.6885 81.648C69.3605 82.0107 69.8885 82.5333 70.2725 83.216C70.6672 83.8987 70.8645 84.6933 70.8645 85.6C70.8645 86.5067 70.6618 87.3067 70.2565 88C69.8618 88.6827 69.3232 89.2107 68.6405 89.584C67.9578 89.9573 67.2005 90.144 66.3685 90.144ZM66.3685 88.864C66.8912 88.864 67.3818 88.7413 67.8405 88.496C68.2992 88.2507 68.6672 87.8827 68.9445 87.392C69.2325 86.9013 69.3765 86.304 69.3765 85.6C69.3765 84.896 69.2378 84.2987 68.9605 83.808C68.6832 83.3173 68.3205 82.9547 67.8725 82.72C67.4245 82.4747 66.9392 82.352 66.4165 82.352C65.8832 82.352 65.3925 82.4747 64.9445 82.72C64.5072 82.9547 64.1552 83.3173 63.8885 83.808C63.6218 84.2987 63.4885 84.896 63.4885 85.6C63.4885 86.3147 63.6165 86.9173 63.8725 87.408C64.1392 87.8987 64.4912 88.2667 64.9285 88.512C65.3658 88.7467 65.8458 88.864 66.3685 88.864ZM77.0509 81.072C78.1175 81.072 78.9815 81.3973 79.6429 82.048C80.3042 82.688 80.6349 83.616 80.6349 84.832V90H79.1949V85.04C79.1949 84.1653 78.9762 83.4987 78.5389 83.04C78.1015 82.5707 77.5042 82.336 76.7469 82.336C75.9789 82.336 75.3655 82.576 74.9069 83.056C74.4589 83.536 74.2349 84.2347 74.2349 85.152V90H72.7789V81.232H74.2349V82.48C74.5229 82.032 74.9122 81.6853 75.4029 81.44C75.9042 81.1947 76.4535 81.072 77.0509 81.072ZM82.4693 85.584C82.4693 84.688 82.6506 83.904 83.0133 83.232C83.3759 82.5493 83.8719 82.0213 84.5013 81.648C85.1413 81.2747 85.8506 81.088 86.6293 81.088C87.3973 81.088 88.0639 81.2533 88.6293 81.584C89.1946 81.9147 89.6159 82.3307 89.8933 82.832V81.232H91.3653V90H89.8933V88.368C89.6053 88.88 89.1733 89.3067 88.5973 89.648C88.0319 89.9787 87.3706 90.144 86.6133 90.144C85.8346 90.144 85.1306 89.952 84.5013 89.568C83.8719 89.184 83.3759 88.6453 83.0133 87.952C82.6506 87.2587 82.4693 86.4693 82.4693 85.584ZM89.8933 85.6C89.8933 84.9387 89.7599 84.3627 89.4933 83.872C89.2266 83.3813 88.8639 83.008 88.4053 82.752C87.9573 82.4853 87.4613 82.352 86.9173 82.352C86.3733 82.352 85.8773 82.48 85.4293 82.736C84.9813 82.992 84.6239 83.3653 84.3573 83.856C84.0906 84.3467 83.9573 84.9227 83.9573 85.584C83.9573 86.256 84.0906 86.8427 84.3573 87.344C84.6239 87.8347 84.9813 88.2133 85.4293 88.48C85.8773 88.736 86.3733 88.864 86.9173 88.864C87.4613 88.864 87.9573 88.736 88.4053 88.48C88.8639 88.2133 89.2266 87.8347 89.4933 87.344C89.7599 86.8427 89.8933 86.2613 89.8933 85.6ZM95.2818 78.16V90H93.8258V78.16H95.2818Z" fill="black"/>
<rect y="62.0001" width="71.9999" height="6.00003" fill="#444CFC"/>
<rect x="10.4023" y="62" width="61.5953" height="6.00003" fill="#FFA155"/>
<rect x="10.0503" y="62" width="44.6449" height="5.99069" fill="#FFD3AF"/>
<path d="M1.296 18.4V13.756H9.972V40H4.788V18.4H1.296ZM14.951 26.536C14.951 22.384 15.695 19.132 17.183 16.78C18.695 14.428 21.191 13.252 24.671 13.252C28.151 13.252 30.635 14.428 32.123 16.78C33.635 19.132 34.391 22.384 34.391 26.536C34.391 30.712 33.635 33.988 32.123 36.364C30.635 38.74 28.151 39.928 24.671 39.928C21.191 39.928 18.695 38.74 17.183 36.364C15.695 33.988 14.951 30.712 14.951 26.536ZM29.423 26.536C29.423 24.76 29.303 23.272 29.063 22.072C28.847 20.848 28.391 19.852 27.695 19.084C27.023 18.316 26.015 17.932 24.671 17.932C23.327 17.932 22.307 18.316 21.611 19.084C20.939 19.852 20.483 20.848 20.243 22.072C20.027 23.272 19.919 24.76 19.919 26.536C19.919 28.36 20.027 29.896 20.243 31.144C20.459 32.368 20.915 33.364 21.611 34.132C22.307 34.876 23.327 35.248 24.671 35.248C26.015 35.248 27.035 34.876 27.731 34.132C28.427 33.364 28.883 32.368 29.099 31.144C29.315 29.896 29.423 28.36 29.423 26.536ZM38.2244 26.536C38.2244 22.384 38.9684 19.132 40.4564 16.78C41.9684 14.428 44.4644 13.252 47.9444 13.252C51.4244 13.252 53.9084 14.428 55.3964 16.78C56.9084 19.132 57.6644 22.384 57.6644 26.536C57.6644 30.712 56.9084 33.988 55.3964 36.364C53.9084 38.74 51.4244 39.928 47.9444 39.928C44.4644 39.928 41.9684 38.74 40.4564 36.364C38.9684 33.988 38.2244 30.712 38.2244 26.536ZM52.6964 26.536C52.6964 24.76 52.5764 23.272 52.3364 22.072C52.1204 20.848 51.6644 19.852 50.9684 19.084C50.2964 18.316 49.2884 17.932 47.9444 17.932C46.6004 17.932 45.5804 18.316 44.8844 19.084C44.2124 19.852 43.7564 20.848 43.5164 22.072C43.3004 23.272 43.1924 24.76 43.1924 26.536C43.1924 28.36 43.3004 29.896 43.5164 31.144C43.7324 32.368 44.1884 33.364 44.8844 34.132C45.5804 34.876 46.6004 35.248 47.9444 35.248C49.2884 35.248 50.3084 34.876 51.0044 34.132C51.7004 33.364 52.1564 32.368 52.3724 31.144C52.5884 29.896 52.6964 28.36 52.6964 26.536ZM80.9018 29.38H74.0978V36.364H69.3458V29.38H62.5418V24.988H69.3458V18.004H74.0978V24.988H80.9018V29.38Z" fill="#232536"/>
</svg>
